<?xml version="1.0" encoding="UTF-8"?>
<svg id="Layer_1" xmlns="http://www.w3.org/2000/svg" version="1.1" viewBox="0 0 180 180">
  <!-- Generator: Adobe Illustrator 29.1.0, SVG Export Plug-In . SVG Version: 2.1.0 Build 142)  -->
  <defs>
    <style>
      .st0 {
        fill: none;
      }

      .st1 {
        fill: #004739;
      }
    </style>
  </defs>
  <g>
    <path class="st1" d="M135.3,128.5h-6.2v8.1h5.6c3.5,0,5.4-1.6,5.4-4.1s-1.7-4-4.8-4Z"/>
    <path class="st1" d="M0,0v180h180V0H0ZM50.1,151.3l-10.7-14.2v14.2h-10.8v-30.3h10.8v11.6l10.9-11.6h12.9l-13.1,13.5,13.3,16.7h-13.4ZM78.2,151.3h-10.8v-30.3h10.8v30.3ZM72.8,117.1c-3.2,0-5.9-2.6-5.9-5.9s2.6-5.9,5.9-5.9,5.9,2.6,5.9,5.9-2.6,5.9-5.9,5.9ZM98.2,152.2c-6,0-11.1-1.6-14.6-3.8v-7.8c3.7,2.3,8.4,3.9,13.4,3.9s5.1-.6,5.1-1.9-.9-1.8-3.9-2.3l-4.3-.8c-7.3-1.3-10.4-4.5-10.4-9.5s5-9.8,15.5-9.8,10.5,1.6,12.7,3v7.5c-2.2-1.2-6.3-2.6-11.3-2.6s-5.6.7-5.6,1.8.8,1.4,3.5,1.8l4.8.8c7,1.2,10.3,3.9,10.3,9.4s-6.1,10.4-15.2,10.4ZM137.5,143.4h-8.4v7.9h-10.8v-30.3h20.9c8,0,12,4.5,12,11.2s-4.6,11.3-13.7,11.3Z"/>
  </g>
  <line class="st0" x1="0" y1="180.1" x2="180.2" y2="180.1"/>
</svg>